# MagicaVoxel @ Ephtracy

# group
o 

# material
mtllib Bot_AI-3.mtl
usemtl palette

# normals
vn -1 0 0
vn 1 0 0
vn 0 0 1
vn 0 0 -1
vn 0 -1 0
vn 0 1 0

# texcoords
vt 0.00195313 0.5
vt 0.986328 0.5
vt 0.994141 0.5

# verts
v -0.2 -1.4 0.1
v -0.2 -1.4 -0.1
v -0.2 -1.3 0.2
v -0.2 -1.3 0.1
v -0.2 -1.3 -0.1
v -0.2 -1.3 -0.2
v -0.2 -1 0.1
v -0.2 -1 -0.2
v -0.2 -0.9 0.2
v -0.2 -0.9 0.1
v -0.2 -0.7 0.1
v -0.2 -0.7 0
v -0.2 -0.7 -0.1
v -0.2 -0.7 -0.2
v -0.2 -0.6 0
v -0.2 -0.6 -0.1
v -0.2 -0.2 0.1
v -0.2 -0.2 0
v -0.2 -0.2 -0.1
v -0.2 -0.2 -0.2
v -0.2 -0.1 0
v -0.2 -0.1 -0.1
v -0.1 -1.4 -0.1
v -0.1 -1.4 -0.2
v -0.1 -1.3 -0.1
v -0.1 -1.3 -0.2
v -0.1 -0.2 0.1
v -0.1 -0.2 0
v -0.1 -0.2 -0.1
v -0.1 -0.2 -0.2
v -0.1 -0.1 0.1
v -0.1 -0.1 0
v -0.1 -0.1 -0.1
v -0.1 -0.1 -0.2
v -0.1 0 0
v -0.1 0 -0.1
v 0 -1.1 0.2
v 0 -1.1 -0.2
v 0 -1 0.2
v 0 -1 -0.2
v 0 -0.1 0.1
v 0 -0.1 0
v 0 -0.1 -0.1
v 0 -0.1 -0.2
v 0 0 0.1
v 0 0 0
v 0 0 -0.1
v 0 0 -0.2
v 0.1 -1.2 0.2
v 0.1 -1.2 -0.2
v 0.1 -1.1 0.2
v 0.1 -1.1 -0.2
v -0.1 -1.2 0.2
v -0.1 -1.2 -0.2
v -0.1 -1 0.2
v -0.1 -1 -0.2
v 0.2 -1.4 0.1
v 0.2 -1.4 -0.2
v 0.2 -1.3 0.2
v 0.2 -1.3 0.1
v 0.2 -1.1 0
v 0.2 -1.1 -0.1
v 0.2 -1 0.2
v 0.2 -1 0
v 0.2 -0.9 0.2
v 0.2 -0.9 0.1
v 0.2 -0.9 -0.1
v 0.2 -0.9 -0.2
v 0.2 -0.6 0.1
v 0.2 -0.6 0
v 0.2 -0.6 -0.1
v 0.2 -0.6 -0.2
v 0.2 0 0.1
v 0.2 0 -0.2
v -0.2 -1.3 0.2
v -0.2 -0.9 0.2
v -0.1 -1.2 0.2
v -0.1 -1 0.2
v 0 -1.1 0.2
v 0 -1 0.2
v 0.1 -1.2 0.2
v 0.1 -1.1 0.2
v 0.1 -1 0.2
v 0.1 -0.9 0.2
v 0.2 -1.3 0.2
v 0.2 -1 0.2
v 0.2 -0.9 0.2
v -0.2 -1.4 0.1
v -0.2 -1.3 0.1
v -0.2 -0.9 0.1
v -0.2 -0.7 0.1
v -0.2 -0.2 0.1
v -0.1 -0.7 0.1
v -0.1 -0.6 0.1
v -0.1 -0.2 0.1
v -0.1 -0.1 0.1
v 0 -0.7 0.1
v 0 -0.6 0.1
v 0 -0.1 0.1
v 0 0 0.1
v 0.1 -0.9 0.1
v 0.1 -0.7 0.1
v 0.1 -0.6 0.1
v 0.2 -1.4 0.1
v 0.2 -1.3 0.1
v 0.2 -0.9 0.1
v 0.2 -0.6 0.1
v 0.2 0 0.1
v -0.2 -0.2 0
v -0.2 -0.1 0
v -0.1 -0.2 0
v -0.1 -0.1 0
v -0.1 0 0
v 0 -0.1 0
v 0 0 0
v -0.2 -1.4 -0.1
v -0.2 -1.3 -0.1
v -0.2 -0.2 -0.1
v -0.2 -0.1 -0.1
v -0.1 -1.4 -0.1
v -0.1 -1.3 -0.1
v -0.1 -0.2 -0.1
v -0.1 -0.1 -0.1
v -0.1 0 -0.1
v 0 -0.1 -0.1
v 0 0 -0.1
v -0.2 -1.3 -0.2
v -0.2 -1 -0.2
v -0.2 -0.7 -0.2
v -0.2 -0.2 -0.2
v -0.1 -1.4 -0.2
v -0.1 -1.3 -0.2
v -0.1 -1.2 -0.2
v -0.1 -1 -0.2
v -0.1 -0.9 -0.2
v -0.1 -0.7 -0.2
v -0.1 -0.6 -0.2
v -0.1 -0.2 -0.2
v -0.1 -0.1 -0.2
v 0 -1.1 -0.2
v 0 -1 -0.2
v 0 -0.7 -0.2
v 0 -0.6 -0.2
v 0 -0.1 -0.2
v 0 0 -0.2
v 0.1 -1.2 -0.2
v 0.1 -1.1 -0.2
v 0.1 -0.7 -0.2
v 0.1 -0.6 -0.2
v 0.2 -1.4 -0.2
v 0.2 -0.9 -0.2
v 0.2 -0.6 -0.2
v 0.2 0 -0.2
v -0.2 -1.4 0.1
v 0.2 -1.4 0.1
v -0.2 -1.4 -0.1
v -0.1 -1.4 -0.1
v -0.1 -1.4 -0.2
v 0.2 -1.4 -0.2
v -0.2 -1.3 0.2
v 0.2 -1.3 0.2
v -0.2 -1.3 0.1
v 0.2 -1.3 0.1
v -0.2 -1.3 -0.1
v -0.1 -1.3 -0.1
v -0.2 -1.3 -0.2
v -0.1 -1.3 -0.2
v 0 -1.1 0.2
v 0.1 -1.1 0.2
v 0 -1.1 -0.2
v 0.1 -1.1 -0.2
v -0.1 -1 0.2
v 0 -1 0.2
v -0.1 -1 -0.2
v 0 -1 -0.2
v -0.1 -1.2 0.2
v 0.1 -1.2 0.2
v -0.1 -1.2 -0.2
v 0.1 -1.2 -0.2
v -0.2 -0.9 0.2
v 0.1 -0.9 0.2
v 0.2 -0.9 0.2
v -0.2 -0.9 0.1
v 0.1 -0.9 0.1
v 0.2 -0.9 0.1
v -0.2 -0.2 0.1
v -0.1 -0.2 0.1
v -0.2 -0.2 0
v -0.1 -0.2 0
v -0.2 -0.2 -0.1
v -0.1 -0.2 -0.1
v -0.2 -0.2 -0.2
v -0.1 -0.2 -0.2
v -0.1 -0.1 0.1
v 0 -0.1 0.1
v -0.2 -0.1 0
v -0.1 -0.1 0
v 0 -0.1 0
v -0.2 -0.1 -0.1
v -0.1 -0.1 -0.1
v 0 -0.1 -0.1
v -0.1 -0.1 -0.2
v 0 -0.1 -0.2
v 0 0 0.1
v 0.2 0 0.1
v -0.1 0 0
v 0 0 0
v -0.1 0 -0.1
v 0 0 -0.1
v 0 0 -0.2
v 0.2 0 -0.2

# faces
f 4/1/1 2/1/1 1/1/1
f 5/1/1 2/1/1 4/1/1
f 7/1/1 4/1/1 3/1/1
f 7/1/1 6/1/1 5/1/1
f 7/1/1 5/1/1 4/1/1
f 8/1/1 6/1/1 7/1/1
f 9/1/1 7/1/1 3/1/1
f 10/2/1 8/2/1 7/2/1
f 10/1/1 7/1/1 9/1/1
f 11/2/1 8/2/1 10/2/1
f 12/2/1 8/2/1 11/2/1
f 13/2/1 8/2/1 12/2/1
f 14/2/1 8/2/1 13/2/1
f 15/3/1 12/3/1 11/3/1
f 15/2/1 13/2/1 12/2/1
f 16/3/1 14/3/1 13/3/1
f 16/2/1 13/2/1 15/2/1
f 17/3/1 15/3/1 11/3/1
f 17/3/1 16/3/1 15/3/1
f 18/3/1 16/3/1 17/3/1
f 19/3/1 14/3/1 16/3/1
f 19/3/1 16/3/1 18/3/1
f 20/3/1 14/3/1 19/3/1
f 21/3/1 19/3/1 18/3/1
f 22/3/1 19/3/1 21/3/1
f 25/1/1 24/1/1 23/1/1
f 26/1/1 24/1/1 25/1/1
f 31/3/1 28/3/1 27/3/1
f 32/3/1 28/3/1 31/3/1
f 33/3/1 30/3/1 29/3/1
f 34/3/1 30/3/1 33/3/1
f 35/3/1 33/3/1 32/3/1
f 36/3/1 33/3/1 35/3/1
f 39/1/1 38/1/1 37/1/1
f 40/1/1 38/1/1 39/1/1
f 45/3/1 42/3/1 41/3/1
f 46/3/1 42/3/1 45/3/1
f 47/3/1 44/3/1 43/3/1
f 48/3/1 44/3/1 47/3/1
f 51/1/1 50/1/1 49/1/1
f 52/1/1 50/1/1 51/1/1
f 53/1/2 54/1/2 55/1/2
f 55/1/2 54/1/2 56/1/2
f 57/1/2 58/1/2 60/1/2
f 60/1/2 58/1/2 61/1/2
f 59/1/2 60/1/2 61/1/2
f 61/1/2 58/1/2 62/1/2
f 59/1/2 61/1/2 63/1/2
f 61/3/2 62/3/2 64/3/2
f 63/1/2 61/1/2 64/1/2
f 63/2/2 64/2/2 65/2/2
f 65/2/2 64/2/2 66/2/2
f 62/1/2 58/1/2 67/1/2
f 64/3/2 62/3/2 67/3/2
f 67/1/2 58/1/2 68/1/2
f 66/2/2 64/2/2 69/2/2
f 64/3/2 67/3/2 70/3/2
f 69/2/2 64/2/2 70/2/2
f 67/2/2 68/2/2 71/2/2
f 70/3/2 67/3/2 71/3/2
f 71/2/2 68/2/2 72/2/2
f 69/3/2 70/3/2 73/3/2
f 70/3/2 71/3/2 73/3/2
f 71/3/2 72/3/2 73/3/2
f 73/3/2 72/3/2 74/3/2
f 77/1/3 76/1/3 75/1/3
f 78/1/3 76/1/3 77/1/3
f 80/1/3 76/1/3 78/1/3
f 81/1/3 77/1/3 75/1/3
f 82/1/3 80/1/3 79/1/3
f 83/1/3 76/1/3 80/1/3
f 83/1/3 80/1/3 82/1/3
f 84/1/3 76/1/3 83/1/3
f 85/1/3 81/1/3 75/1/3
f 85/1/3 82/1/3 81/1/3
f 85/1/3 83/1/3 82/1/3
f 86/2/3 84/2/3 83/2/3
f 86/1/3 83/1/3 85/1/3
f 87/2/3 84/2/3 86/2/3
f 93/2/3 91/2/3 90/2/3
f 93/3/3 92/3/3 91/3/3
f 94/3/3 92/3/3 93/3/3
f 95/3/3 92/3/3 94/3/3
f 97/2/3 93/2/3 90/2/3
f 97/2/3 94/2/3 93/2/3
f 98/3/3 96/3/3 95/3/3
f 98/2/3 94/2/3 97/2/3
f 98/3/3 95/3/3 94/3/3
f 99/3/3 96/3/3 98/3/3
f 101/2/3 97/2/3 90/2/3
f 102/3/3 100/3/3 99/3/3
f 102/2/3 97/2/3 101/2/3
f 102/3/3 98/3/3 97/3/3
f 102/3/3 99/3/3 98/3/3
f 103/3/3 100/3/3 102/3/3
f 104/1/3 89/1/3 88/1/3
f 105/1/3 89/1/3 104/1/3
f 106/2/3 102/2/3 101/2/3
f 106/2/3 103/2/3 102/2/3
f 107/3/3 100/3/3 103/3/3
f 107/2/3 103/2/3 106/2/3
f 108/3/3 100/3/3 107/3/3
f 111/3/3 110/3/3 109/3/3
f 112/3/3 110/3/3 111/3/3
f 114/3/3 113/3/3 112/3/3
f 115/3/3 113/3/3 114/3/3
f 116/1/4 117/1/4 120/1/4
f 120/1/4 117/1/4 121/1/4
f 118/3/4 119/3/4 122/3/4
f 122/3/4 119/3/4 123/3/4
f 123/3/4 124/3/4 125/3/4
f 125/3/4 124/3/4 126/3/4
f 127/1/4 128/1/4 132/1/4
f 132/1/4 128/1/4 133/1/4
f 128/2/4 129/2/4 134/2/4
f 133/1/4 128/1/4 134/1/4
f 134/2/4 129/2/4 135/2/4
f 129/3/4 130/3/4 136/3/4
f 135/2/4 129/2/4 136/2/4
f 136/3/4 130/3/4 137/3/4
f 137/3/4 130/3/4 138/3/4
f 134/1/4 135/1/4 141/1/4
f 135/2/4 136/2/4 142/2/4
f 136/2/4 137/2/4 142/2/4
f 137/3/4 138/3/4 143/3/4
f 142/2/4 137/2/4 143/2/4
f 138/3/4 139/3/4 143/3/4
f 143/3/4 139/3/4 144/3/4
f 132/1/4 133/1/4 146/1/4
f 131/1/4 132/1/4 146/1/4
f 140/1/4 141/1/4 147/1/4
f 135/2/4 142/2/4 148/2/4
f 144/3/4 145/3/4 148/3/4
f 143/3/4 144/3/4 148/3/4
f 142/3/4 143/3/4 148/3/4
f 148/3/4 145/3/4 149/3/4
f 146/1/4 147/1/4 150/1/4
f 131/1/4 146/1/4 150/1/4
f 147/1/4 141/1/4 151/1/4
f 150/1/4 147/1/4 151/1/4
f 148/2/4 149/2/4 151/2/4
f 135/2/4 148/2/4 151/2/4
f 141/1/4 135/1/4 151/1/4
f 149/3/4 145/3/4 152/3/4
f 151/2/4 149/2/4 152/2/4
f 152/3/4 145/3/4 153/3/4
f 156/1/5 155/1/5 154/1/5
f 157/1/5 155/1/5 156/1/5
f 158/1/5 155/1/5 157/1/5
f 159/1/5 155/1/5 158/1/5
f 162/1/5 161/1/5 160/1/5
f 163/1/5 161/1/5 162/1/5
f 166/1/5 165/1/5 164/1/5
f 167/1/5 165/1/5 166/1/5
f 170/1/5 169/1/5 168/1/5
f 171/1/5 169/1/5 170/1/5
f 174/1/5 173/1/5 172/1/5
f 175/1/5 173/1/5 174/1/5
f 176/1/6 177/1/6 178/1/6
f 178/1/6 177/1/6 179/1/6
f 180/1/6 181/1/6 183/1/6
f 181/2/6 182/2/6 184/2/6
f 183/1/6 181/1/6 184/1/6
f 184/2/6 182/2/6 185/2/6
f 186/3/6 187/3/6 188/3/6
f 188/3/6 187/3/6 189/3/6
f 190/3/6 191/3/6 192/3/6
f 192/3/6 191/3/6 193/3/6
f 194/3/6 195/3/6 197/3/6
f 197/3/6 195/3/6 198/3/6
f 196/3/6 197/3/6 199/3/6
f 199/3/6 197/3/6 200/3/6
f 200/3/6 201/3/6 202/3/6
f 202/3/6 201/3/6 203/3/6
f 204/3/6 205/3/6 207/3/6
f 206/3/6 207/3/6 208/3/6
f 207/3/6 205/3/6 209/3/6
f 208/3/6 207/3/6 209/3/6
f 209/3/6 205/3/6 210/3/6
f 210/3/6 205/3/6 211/3/6
