# MagicaVoxel @ Ephtracy

# group
o 

# material
mtllib Player-4.mtl
usemtl palette

# normals
vn -1 0 0
vn 1 0 0
vn 0 0 1
vn 0 0 -1
vn 0 -1 0
vn 0 1 0

# texcoords
vt 0.974609 0.5
vt 0.986328 0.5
vt 0.994141 0.5

# verts
v -0.2 -1.3 0.1
v -0.2 -1.3 -0.2
v -0.2 -1.2 0.2
v -0.2 -1.2 0.1
v -0.2 -0.9 0
v -0.2 -0.9 -0.1
v -0.2 -0.8 0.2
v -0.2 -0.8 0.1
v -0.2 -0.8 0
v -0.2 -0.8 -0.1
v -0.2 -0.8 -0.2
v -0.2 -0.6 0
v -0.2 -0.6 -0.1
v -0.2 -0.5 0.1
v -0.2 -0.5 0
v -0.2 -0.5 -0.1
v -0.2 -0.5 -0.2
v -0.2 0.0999999 0.1
v -0.2 0.0999999 -0.2
v 0.1 -1.1 0.2
v 0.1 -1.1 -0.2
v 0.1 -0.9 0.2
v 0.1 -0.9 -0.2
v -0.1 -1.1 0.2
v -0.1 -1.1 -0.2
v -0.1 -1 0.2
v -0.1 -1 -0.2
v 0 -1 0.2
v 0 -1 -0.2
v 0 -0.9 0.2
v 0 -0.9 -0.2
v 0 -1.19209e-007 0.1
v 0 -1.19209e-007 0
v 0 -1.19209e-007 -0.1
v 0 -1.19209e-007 -0.2
v 0 0.0999999 0.1
v 0 0.0999999 0
v 0 0.0999999 -0.1
v 0 0.0999999 -0.2
v 0.1 -1.3 -0.1
v 0.1 -1.3 -0.2
v 0.1 -1.2 -0.1
v 0.1 -1.2 -0.2
v 0.1 -0.1 0.1
v 0.1 -0.1 0
v 0.1 -0.1 -0.1
v 0.1 -0.1 -0.2
v 0.1 -1.19209e-007 0.1
v 0.1 -1.19209e-007 0
v 0.1 -1.19209e-007 -0.1
v 0.1 -1.19209e-007 -0.2
v 0.1 0.0999999 0
v 0.1 0.0999999 -0.1
v 0.2 -1.3 0.1
v 0.2 -1.3 -0.1
v 0.2 -1.2 0.2
v 0.2 -1.2 0.1
v 0.2 -1.2 -0.1
v 0.2 -1.2 -0.2
v 0.2 -0.8 0.2
v 0.2 -0.8 0.1
v 0.2 -0.8 -0.2
v 0.2 -0.6 0.1
v 0.2 -0.6 0
v 0.2 -0.6 -0.1
v 0.2 -0.6 -0.2
v 0.2 -0.5 0
v 0.2 -0.5 -0.1
v 0.2 -0.1 0.1
v 0.2 -0.1 0
v 0.2 -0.1 -0.1
v 0.2 -0.1 -0.2
v 0.2 -1.19209e-007 0
v 0.2 -1.19209e-007 -0.1
v -0.2 -1.2 0.2
v -0.2 -0.8 0.2
v -0.1 -1.1 0.2
v -0.1 -1 0.2
v 0 -1 0.2
v 0 -0.9 0.2
v 0.1 -1.1 0.2
v 0.1 -0.9 0.2
v 0.2 -1.2 0.2
v 0.2 -0.8 0.2
v -0.2 -1.3 0.1
v -0.2 -1.2 0.1
v -0.2 -0.8 0.1
v -0.2 -0.5 0.1
v -0.2 0.0999999 0.1
v -0.1 -0.6 0.1
v -0.1 -0.5 0.1
v 0 -0.6 0.1
v 0 -0.5 0.1
v 0 -1.19209e-007 0.1
v 0 0.0999999 0.1
v 0.1 -0.6 0.1
v 0.1 -0.5 0.1
v 0.1 -0.1 0.1
v 0.1 -1.19209e-007 0.1
v 0.2 -1.3 0.1
v 0.2 -1.2 0.1
v 0.2 -0.8 0.1
v 0.2 -0.6 0.1
v 0.2 -0.1 0.1
v 0 -1.19209e-007 0
v 0 0.0999999 0
v 0.1 -0.1 0
v 0.1 -1.19209e-007 0
v 0.1 0.0999999 0
v 0.2 -0.1 0
v 0.2 -1.19209e-007 0
v 0 -1.19209e-007 -0.1
v 0 0.0999999 -0.1
v 0.1 -1.3 -0.1
v 0.1 -1.2 -0.1
v 0.1 -0.1 -0.1
v 0.1 -1.19209e-007 -0.1
v 0.1 0.0999999 -0.1
v 0.2 -1.3 -0.1
v 0.2 -1.2 -0.1
v 0.2 -0.1 -0.1
v 0.2 -1.19209e-007 -0.1
v -0.2 -1.3 -0.2
v -0.2 -0.8 -0.2
v -0.2 -0.5 -0.2
v -0.2 0.0999999 -0.2
v -0.1 -1.1 -0.2
v -0.1 -1 -0.2
v -0.1 -0.6 -0.2
v -0.1 -0.5 -0.2
v 0 -1 -0.2
v 0 -0.9 -0.2
v 0 -0.6 -0.2
v 0 -0.5 -0.2
v 0 -1.19209e-007 -0.2
v 0 0.0999999 -0.2
v 0.1 -1.3 -0.2
v 0.1 -1.2 -0.2
v 0.1 -1.1 -0.2
v 0.1 -0.9 -0.2
v 0.1 -0.6 -0.2
v 0.1 -0.5 -0.2
v 0.1 -0.1 -0.2
v 0.1 -1.19209e-007 -0.2
v 0.2 -1.2 -0.2
v 0.2 -0.8 -0.2
v 0.2 -0.6 -0.2
v 0.2 -0.1 -0.2
v -0.2 -1.3 0.1
v 0.2 -1.3 0.1
v 0.1 -1.3 -0.1
v 0.2 -1.3 -0.1
v -0.2 -1.3 -0.2
v 0.1 -1.3 -0.2
v -0.2 -1.2 0.2
v 0.2 -1.2 0.2
v -0.2 -1.2 0.1
v 0.2 -1.2 0.1
v 0.1 -1.2 -0.1
v 0.2 -1.2 -0.1
v 0.1 -1.2 -0.2
v 0.2 -1.2 -0.2
v -0.1 -1 0.2
v 0 -1 0.2
v -0.1 -1 -0.2
v 0 -1 -0.2
v 0 -0.9 0.2
v 0.1 -0.9 0.2
v 0 -0.9 -0.2
v 0.1 -0.9 -0.2
v -0.1 -1.1 0.2
v 0.1 -1.1 0.2
v -0.1 -1.1 -0.2
v 0.1 -1.1 -0.2
v -0.2 -0.8 0.2
v 0.2 -0.8 0.2
v -0.2 -0.8 0.1
v 0.2 -0.8 0.1
v 0.1 -0.1 0.1
v 0.2 -0.1 0.1
v 0.1 -0.1 0
v 0.2 -0.1 0
v 0.1 -0.1 -0.1
v 0.2 -0.1 -0.1
v 0.1 -0.1 -0.2
v 0.2 -0.1 -0.2
v 0 -1.19209e-007 0.1
v 0.1 -1.19209e-007 0.1
v 0 -1.19209e-007 0
v 0.1 -1.19209e-007 0
v 0.2 -1.19209e-007 0
v 0 -1.19209e-007 -0.1
v 0.1 -1.19209e-007 -0.1
v 0.2 -1.19209e-007 -0.1
v 0 -1.19209e-007 -0.2
v 0.1 -1.19209e-007 -0.2
v -0.2 0.0999999 0.1
v 0 0.0999999 0.1
v 0 0.0999999 0
v 0.1 0.0999999 0
v 0 0.0999999 -0.1
v 0.1 0.0999999 -0.1
v -0.2 0.0999999 -0.2
v 0 0.0999999 -0.2

# faces
f 4/3/1 2/3/1 1/3/1
f 5/3/1 2/3/1 4/3/1
f 5/3/1 4/3/1 3/3/1
f 6/3/1 2/3/1 5/3/1
f 7/3/1 5/3/1 3/3/1
f 8/3/1 5/3/1 7/3/1
f 9/2/1 6/2/1 5/2/1
f 9/3/1 5/3/1 8/3/1
f 10/3/1 2/3/1 6/3/1
f 10/2/1 6/2/1 9/2/1
f 11/3/1 2/3/1 10/3/1
f 12/2/1 9/2/1 8/2/1
f 12/2/1 11/2/1 10/2/1
f 12/2/1 10/2/1 9/2/1
f 13/2/1 11/2/1 12/2/1
f 14/2/1 12/2/1 8/2/1
f 15/1/1 13/1/1 12/1/1
f 15/2/1 12/2/1 14/2/1
f 16/2/1 11/2/1 13/2/1
f 16/1/1 13/1/1 15/1/1
f 17/2/1 11/2/1 16/2/1
f 18/1/1 15/1/1 14/1/1
f 18/1/1 16/1/1 15/1/1
f 18/1/1 17/1/1 16/1/1
f 19/1/1 17/1/1 18/1/1
f 22/3/1 21/3/1 20/3/1
f 23/3/1 21/3/1 22/3/1
f 24/3/2 25/3/2 26/3/2
f 26/3/2 25/3/2 27/3/2
f 28/3/2 29/3/2 30/3/2
f 30/3/2 29/3/2 31/3/2
f 32/1/2 33/1/2 36/1/2
f 36/1/2 33/1/2 37/1/2
f 34/1/2 35/1/2 38/1/2
f 38/1/2 35/1/2 39/1/2
f 40/3/2 41/3/2 42/3/2
f 42/3/2 41/3/2 43/3/2
f 44/1/2 45/1/2 48/1/2
f 48/1/2 45/1/2 49/1/2
f 46/1/2 47/1/2 50/1/2
f 50/1/2 47/1/2 51/1/2
f 49/1/2 50/1/2 52/1/2
f 52/1/2 50/1/2 53/1/2
f 54/3/2 55/3/2 57/3/2
f 57/3/2 55/3/2 58/3/2
f 56/3/2 57/3/2 60/3/2
f 58/3/2 59/3/2 60/3/2
f 57/3/2 58/3/2 60/3/2
f 60/3/2 59/3/2 61/3/2
f 61/3/2 59/3/2 62/3/2
f 61/2/2 62/2/2 63/2/2
f 63/2/2 62/2/2 64/2/2
f 64/2/2 62/2/2 65/2/2
f 65/2/2 62/2/2 66/2/2
f 63/1/2 64/1/2 67/1/2
f 64/2/2 65/2/2 67/2/2
f 65/1/2 66/1/2 68/1/2
f 67/2/2 65/2/2 68/2/2
f 63/1/2 67/1/2 69/1/2
f 67/1/2 68/1/2 69/1/2
f 69/1/2 68/1/2 70/1/2
f 68/1/2 66/1/2 71/1/2
f 70/1/2 68/1/2 71/1/2
f 71/1/2 66/1/2 72/1/2
f 70/1/2 71/1/2 73/1/2
f 73/1/2 71/1/2 74/1/2
f 77/3/3 76/3/3 75/3/3
f 78/3/3 76/3/3 77/3/3
f 79/3/3 76/3/3 78/3/3
f 80/3/3 76/3/3 79/3/3
f 81/3/3 77/3/3 75/3/3
f 82/3/3 76/3/3 80/3/3
f 83/3/3 81/3/3 75/3/3
f 83/3/3 82/3/3 81/3/3
f 84/3/3 76/3/3 82/3/3
f 84/3/3 82/3/3 83/3/3
f 90/2/3 88/2/3 87/2/3
f 91/1/3 89/1/3 88/1/3
f 91/2/3 88/2/3 90/2/3
f 92/2/3 90/2/3 87/2/3
f 92/1/3 91/1/3 90/1/3
f 93/1/3 89/1/3 91/1/3
f 93/1/3 91/1/3 92/1/3
f 94/1/3 89/1/3 93/1/3
f 95/1/3 89/1/3 94/1/3
f 96/2/3 92/2/3 87/2/3
f 96/2/3 93/2/3 92/2/3
f 97/1/3 94/1/3 93/1/3
f 97/2/3 93/2/3 96/2/3
f 98/1/3 94/1/3 97/1/3
f 99/1/3 94/1/3 98/1/3
f 100/3/3 86/3/3 85/3/3
f 101/3/3 86/3/3 100/3/3
f 102/2/3 96/2/3 87/2/3
f 103/1/3 97/1/3 96/1/3
f 103/2/3 96/2/3 102/2/3
f 103/1/3 98/1/3 97/1/3
f 104/1/3 98/1/3 103/1/3
f 108/1/3 106/1/3 105/1/3
f 109/1/3 106/1/3 108/1/3
f 110/1/3 108/1/3 107/1/3
f 111/1/3 108/1/3 110/1/3
f 112/1/4 113/1/4 117/1/4
f 117/1/4 113/1/4 118/1/4
f 114/3/4 115/3/4 119/3/4
f 119/3/4 115/3/4 120/3/4
f 116/1/4 117/1/4 121/1/4
f 121/1/4 117/1/4 122/1/4
f 123/3/4 124/3/4 127/3/4
f 127/3/4 124/3/4 128/3/4
f 124/2/4 125/2/4 129/2/4
f 125/1/4 126/1/4 130/1/4
f 129/2/4 125/2/4 130/2/4
f 128/3/4 124/3/4 131/3/4
f 131/3/4 124/3/4 132/3/4
f 124/2/4 129/2/4 133/2/4
f 129/1/4 130/1/4 133/1/4
f 130/1/4 126/1/4 134/1/4
f 133/1/4 130/1/4 134/1/4
f 134/1/4 126/1/4 135/1/4
f 135/1/4 126/1/4 136/1/4
f 123/3/4 127/3/4 137/3/4
f 137/3/4 127/3/4 138/3/4
f 138/3/4 127/3/4 139/3/4
f 132/3/4 124/3/4 140/3/4
f 124/2/4 133/2/4 141/2/4
f 133/2/4 134/2/4 141/2/4
f 134/1/4 135/1/4 142/1/4
f 141/2/4 134/2/4 142/2/4
f 142/1/4 135/1/4 143/1/4
f 143/1/4 135/1/4 144/1/4
f 138/3/4 139/3/4 145/3/4
f 139/3/4 140/3/4 145/3/4
f 124/2/4 141/2/4 146/2/4
f 145/3/4 140/3/4 146/3/4
f 140/3/4 124/3/4 146/3/4
f 142/1/4 143/1/4 147/1/4
f 146/2/4 141/2/4 147/2/4
f 141/1/4 142/1/4 147/1/4
f 147/1/4 143/1/4 148/1/4
f 151/3/5 150/3/5 149/3/5
f 152/3/5 150/3/5 151/3/5
f 153/3/5 151/3/5 149/3/5
f 154/3/5 151/3/5 153/3/5
f 157/3/5 156/3/5 155/3/5
f 158/3/5 156/3/5 157/3/5
f 161/3/5 160/3/5 159/3/5
f 162/3/5 160/3/5 161/3/5
f 165/3/5 164/3/5 163/3/5
f 166/3/5 164/3/5 165/3/5
f 169/3/5 168/3/5 167/3/5
f 170/3/5 168/3/5 169/3/5
f 171/3/6 172/3/6 173/3/6
f 173/3/6 172/3/6 174/3/6
f 175/3/6 176/3/6 177/3/6
f 177/3/6 176/3/6 178/3/6
f 179/1/6 180/1/6 181/1/6
f 181/1/6 180/1/6 182/1/6
f 183/1/6 184/1/6 185/1/6
f 185/1/6 184/1/6 186/1/6
f 187/1/6 188/1/6 189/1/6
f 189/1/6 188/1/6 190/1/6
f 190/1/6 191/1/6 193/1/6
f 193/1/6 191/1/6 194/1/6
f 192/1/6 193/1/6 195/1/6
f 195/1/6 193/1/6 196/1/6
f 197/1/6 198/1/6 199/1/6
f 197/1/6 199/1/6 201/1/6
f 199/1/6 200/1/6 201/1/6
f 201/1/6 200/1/6 202/1/6
f 197/1/6 201/1/6 203/1/6
f 203/1/6 201/1/6 204/1/6
