# MagicaVoxel @ Ephtracy

# group
o 

# material
mtllib Player-3.mtl
usemtl palette

# normals
vn -1 0 0
vn 1 0 0
vn 0 0 1
vn 0 0 -1
vn 0 -1 0
vn 0 1 0

# texcoords
vt 0.974609 0.5
vt 0.986328 0.5
vt 0.994141 0.5

# verts
v -0.2 -1.3 0.1
v -0.2 -1.3 -0.1
v -0.2 -1.2 0.2
v -0.2 -1.2 0.1
v -0.2 -1.2 -0.1
v -0.2 -1.2 -0.2
v -0.2 -0.8 0.2
v -0.2 -0.8 0.1
v -0.2 -0.8 -0.2
v -0.2 -0.6 0.1
v -0.2 -0.6 0
v -0.2 -0.6 -0.1
v -0.2 -0.6 -0.2
v -0.2 -0.5 0
v -0.2 -0.5 -0.1
v -0.2 -0.1 0.1
v -0.2 -0.1 0
v -0.2 -0.1 -0.1
v -0.2 -0.1 -0.2
v -0.2 -1.19209e-007 0
v -0.2 -1.19209e-007 -0.1
v -0.1 -1.3 -0.1
v -0.1 -1.3 -0.2
v -0.1 -1.2 -0.1
v -0.1 -1.2 -0.2
v -0.1 -0.1 0.1
v -0.1 -0.1 0
v -0.1 -0.1 -0.1
v -0.1 -0.1 -0.2
v -0.1 -1.19209e-007 0.1
v -0.1 -1.19209e-007 0
v -0.1 -1.19209e-007 -0.1
v -0.1 -1.19209e-007 -0.2
v -0.1 0.0999999 0
v -0.1 0.0999999 -0.1
v 0 -1 0.2
v 0 -1 -0.2
v 0 -0.9 0.2
v 0 -0.9 -0.2
v 0 -1.19209e-007 0.1
v 0 -1.19209e-007 0
v 0 -1.19209e-007 -0.1
v 0 -1.19209e-007 -0.2
v 0 0.0999999 0.1
v 0 0.0999999 0
v 0 0.0999999 -0.1
v 0 0.0999999 -0.2
v 0.1 -1.1 0.2
v 0.1 -1.1 -0.2
v 0.1 -1 0.2
v 0.1 -1 -0.2
v -0.1 -1.1 0.2
v -0.1 -1.1 -0.2
v -0.1 -0.9 0.2
v -0.1 -0.9 -0.2
v 0.2 -1.3 0.1
v 0.2 -1.3 -0.2
v 0.2 -1.2 0.2
v 0.2 -1.2 0.1
v 0.2 -0.8 0.2
v 0.2 -0.8 0.1
v 0.2 -0.8 -0.2
v 0.2 -0.6 0
v 0.2 -0.6 -0.1
v 0.2 -0.5 0.1
v 0.2 -0.5 0
v 0.2 -0.5 -0.1
v 0.2 -0.5 -0.2
v 0.2 0.0999999 0.1
v 0.2 0.0999999 -0.2
v -0.2 -1.2 0.2
v -0.2 -0.8 0.2
v -0.1 -1.1 0.2
v -0.1 -0.9 0.2
v 0 -1 0.2
v 0 -0.9 0.2
v 0.1 -1.1 0.2
v 0.1 -1 0.2
v 0.2 -1.2 0.2
v 0.2 -0.8 0.2
v -0.2 -1.3 0.1
v -0.2 -1.2 0.1
v -0.2 -0.8 0.1
v -0.2 -0.6 0.1
v -0.2 -0.1 0.1
v -0.1 -0.6 0.1
v -0.1 -0.5 0.1
v -0.1 -0.1 0.1
v -0.1 -1.19209e-007 0.1
v 0 -0.6 0.1
v 0 -0.5 0.1
v 0 -1.19209e-007 0.1
v 0 0.0999999 0.1
v 0.1 -0.6 0.1
v 0.1 -0.5 0.1
v 0.2 -1.3 0.1
v 0.2 -1.2 0.1
v 0.2 -0.8 0.1
v 0.2 -0.5 0.1
v 0.2 0.0999999 0.1
v -0.2 -0.1 0
v -0.2 -1.19209e-007 0
v -0.1 -0.1 0
v -0.1 -1.19209e-007 0
v -0.1 0.0999999 0
v 0 -1.19209e-007 0
v 0 0.0999999 0
v -0.2 -1.3 -0.1
v -0.2 -1.2 -0.1
v -0.2 -0.1 -0.1
v -0.2 -1.19209e-007 -0.1
v -0.1 -1.3 -0.1
v -0.1 -1.2 -0.1
v -0.1 -0.1 -0.1
v -0.1 -1.19209e-007 -0.1
v -0.1 0.0999999 -0.1
v 0 -1.19209e-007 -0.1
v 0 0.0999999 -0.1
v -0.2 -1.2 -0.2
v -0.2 -0.8 -0.2
v -0.2 -0.6 -0.2
v -0.2 -0.1 -0.2
v -0.1 -1.3 -0.2
v -0.1 -1.2 -0.2
v -0.1 -1.1 -0.2
v -0.1 -0.9 -0.2
v -0.1 -0.6 -0.2
v -0.1 -0.5 -0.2
v -0.1 -0.1 -0.2
v -0.1 -1.19209e-007 -0.2
v 0 -1 -0.2
v 0 -0.9 -0.2
v 0 -0.6 -0.2
v 0 -0.5 -0.2
v 0 -1.19209e-007 -0.2
v 0 0.0999999 -0.2
v 0.1 -1.1 -0.2
v 0.1 -1 -0.2
v 0.1 -0.6 -0.2
v 0.1 -0.5 -0.2
v 0.2 -1.3 -0.2
v 0.2 -0.8 -0.2
v 0.2 -0.5 -0.2
v 0.2 0.0999999 -0.2
v -0.2 -1.3 0.1
v 0.2 -1.3 0.1
v -0.2 -1.3 -0.1
v -0.1 -1.3 -0.1
v -0.1 -1.3 -0.2
v 0.2 -1.3 -0.2
v -0.2 -1.2 0.2
v 0.2 -1.2 0.2
v -0.2 -1.2 0.1
v 0.2 -1.2 0.1
v -0.2 -1.2 -0.1
v -0.1 -1.2 -0.1
v -0.2 -1.2 -0.2
v -0.1 -1.2 -0.2
v 0 -1 0.2
v 0.1 -1 0.2
v 0 -1 -0.2
v 0.1 -1 -0.2
v -0.1 -0.9 0.2
v 0 -0.9 0.2
v -0.1 -0.9 -0.2
v 0 -0.9 -0.2
v -0.1 -1.1 0.2
v 0.1 -1.1 0.2
v -0.1 -1.1 -0.2
v 0.1 -1.1 -0.2
v -0.2 -0.8 0.2
v 0.2 -0.8 0.2
v -0.2 -0.8 0.1
v 0.2 -0.8 0.1
v -0.2 -0.1 0.1
v -0.1 -0.1 0.1
v -0.2 -0.1 0
v -0.1 -0.1 0
v -0.2 -0.1 -0.1
v -0.1 -0.1 -0.1
v -0.2 -0.1 -0.2
v -0.1 -0.1 -0.2
v -0.1 -1.19209e-007 0.1
v 0 -1.19209e-007 0.1
v -0.2 -1.19209e-007 0
v -0.1 -1.19209e-007 0
v 0 -1.19209e-007 0
v -0.2 -1.19209e-007 -0.1
v -0.1 -1.19209e-007 -0.1
v 0 -1.19209e-007 -0.1
v -0.1 -1.19209e-007 -0.2
v 0 -1.19209e-007 -0.2
v 0 0.0999999 0.1
v 0.2 0.0999999 0.1
v -0.1 0.0999999 0
v 0 0.0999999 0
v -0.1 0.0999999 -0.1
v 0 0.0999999 -0.1
v 0 0.0999999 -0.2
v 0.2 0.0999999 -0.2

# faces
f 4/3/1 2/3/1 1/3/1
f 5/3/1 2/3/1 4/3/1
f 7/3/1 4/3/1 3/3/1
f 7/3/1 6/3/1 5/3/1
f 7/3/1 5/3/1 4/3/1
f 8/3/1 6/3/1 7/3/1
f 9/3/1 6/3/1 8/3/1
f 10/2/1 9/2/1 8/2/1
f 11/2/1 9/2/1 10/2/1
f 12/2/1 9/2/1 11/2/1
f 13/2/1 9/2/1 12/2/1
f 14/1/1 11/1/1 10/1/1
f 14/2/1 12/2/1 11/2/1
f 15/1/1 13/1/1 12/1/1
f 15/2/1 12/2/1 14/2/1
f 16/1/1 14/1/1 10/1/1
f 16/1/1 15/1/1 14/1/1
f 17/1/1 15/1/1 16/1/1
f 18/1/1 13/1/1 15/1/1
f 18/1/1 15/1/1 17/1/1
f 19/1/1 13/1/1 18/1/1
f 20/1/1 18/1/1 17/1/1
f 21/1/1 18/1/1 20/1/1
f 24/3/1 23/3/1 22/3/1
f 25/3/1 23/3/1 24/3/1
f 30/1/1 27/1/1 26/1/1
f 31/1/1 27/1/1 30/1/1
f 32/1/1 29/1/1 28/1/1
f 33/1/1 29/1/1 32/1/1
f 34/1/1 32/1/1 31/1/1
f 35/1/1 32/1/1 34/1/1
f 38/3/1 37/3/1 36/3/1
f 39/3/1 37/3/1 38/3/1
f 44/1/1 41/1/1 40/1/1
f 45/1/1 41/1/1 44/1/1
f 46/1/1 43/1/1 42/1/1
f 47/1/1 43/1/1 46/1/1
f 50/3/1 49/3/1 48/3/1
f 51/3/1 49/3/1 50/3/1
f 52/3/2 53/3/2 54/3/2
f 54/3/2 53/3/2 55/3/2
f 56/3/2 57/3/2 59/3/2
f 58/3/2 59/3/2 60/3/2
f 59/3/2 57/3/2 61/3/2
f 60/3/2 59/3/2 61/3/2
f 61/3/2 57/3/2 62/3/2
f 61/2/2 62/2/2 63/2/2
f 63/2/2 62/2/2 64/2/2
f 61/2/2 63/2/2 65/2/2
f 63/1/2 64/1/2 66/1/2
f 65/2/2 63/2/2 66/2/2
f 64/2/2 62/2/2 67/2/2
f 66/1/2 64/1/2 67/1/2
f 67/2/2 62/2/2 68/2/2
f 65/1/2 66/1/2 69/1/2
f 66/1/2 67/1/2 69/1/2
f 67/1/2 68/1/2 69/1/2
f 69/1/2 68/1/2 70/1/2
f 73/3/3 72/3/3 71/3/3
f 74/3/3 72/3/3 73/3/3
f 76/3/3 72/3/3 74/3/3
f 77/3/3 73/3/3 71/3/3
f 78/3/3 76/3/3 75/3/3
f 79/3/3 77/3/3 71/3/3
f 79/3/3 78/3/3 77/3/3
f 80/3/3 76/3/3 78/3/3
f 80/3/3 78/3/3 79/3/3
f 80/3/3 72/3/3 76/3/3
f 86/2/3 84/2/3 83/2/3
f 86/1/3 85/1/3 84/1/3
f 87/1/3 85/1/3 86/1/3
f 88/1/3 85/1/3 87/1/3
f 90/2/3 86/2/3 83/2/3
f 90/2/3 87/2/3 86/2/3
f 91/1/3 89/1/3 88/1/3
f 91/2/3 87/2/3 90/2/3
f 91/1/3 88/1/3 87/1/3
f 92/1/3 89/1/3 91/1/3
f 94/2/3 90/2/3 83/2/3
f 94/1/3 93/1/3 92/1/3
f 94/1/3 92/1/3 91/1/3
f 94/1/3 91/1/3 90/1/3
f 95/1/3 93/1/3 94/1/3
f 96/3/3 82/3/3 81/3/3
f 97/3/3 82/3/3 96/3/3
f 98/2/3 94/2/3 83/2/3
f 98/2/3 95/2/3 94/2/3
f 99/1/3 93/1/3 95/1/3
f 99/2/3 95/2/3 98/2/3
f 100/1/3 93/1/3 99/1/3
f 103/1/3 102/1/3 101/1/3
f 104/1/3 102/1/3 103/1/3
f 106/1/3 105/1/3 104/1/3
f 107/1/3 105/1/3 106/1/3
f 108/3/4 109/3/4 112/3/4
f 112/3/4 109/3/4 113/3/4
f 110/1/4 111/1/4 114/1/4
f 114/1/4 111/1/4 115/1/4
f 115/1/4 116/1/4 117/1/4
f 117/1/4 116/1/4 118/1/4
f 119/3/4 120/3/4 124/3/4
f 124/3/4 120/3/4 125/3/4
f 125/3/4 120/3/4 126/3/4
f 121/1/4 122/1/4 127/1/4
f 120/2/4 121/2/4 127/2/4
f 127/1/4 122/1/4 128/1/4
f 128/1/4 122/1/4 129/1/4
f 126/3/4 120/3/4 132/3/4
f 120/2/4 127/2/4 133/2/4
f 127/2/4 128/2/4 133/2/4
f 128/1/4 129/1/4 134/1/4
f 133/2/4 128/2/4 134/2/4
f 129/1/4 130/1/4 134/1/4
f 134/1/4 130/1/4 135/1/4
f 123/3/4 124/3/4 137/3/4
f 124/3/4 125/3/4 137/3/4
f 131/3/4 132/3/4 138/3/4
f 120/2/4 133/2/4 139/2/4
f 135/1/4 136/1/4 139/1/4
f 134/1/4 135/1/4 139/1/4
f 133/1/4 134/1/4 139/1/4
f 139/1/4 136/1/4 140/1/4
f 137/3/4 138/3/4 141/3/4
f 123/3/4 137/3/4 141/3/4
f 138/3/4 132/3/4 142/3/4
f 141/3/4 138/3/4 142/3/4
f 139/2/4 140/2/4 142/2/4
f 120/2/4 139/2/4 142/2/4
f 132/3/4 120/3/4 142/3/4
f 140/1/4 136/1/4 143/1/4
f 142/2/4 140/2/4 143/2/4
f 143/1/4 136/1/4 144/1/4
f 147/3/5 146/3/5 145/3/5
f 148/3/5 146/3/5 147/3/5
f 149/3/5 146/3/5 148/3/5
f 150/3/5 146/3/5 149/3/5
f 153/3/5 152/3/5 151/3/5
f 154/3/5 152/3/5 153/3/5
f 157/3/5 156/3/5 155/3/5
f 158/3/5 156/3/5 157/3/5
f 161/3/5 160/3/5 159/3/5
f 162/3/5 160/3/5 161/3/5
f 165/3/5 164/3/5 163/3/5
f 166/3/5 164/3/5 165/3/5
f 167/3/6 168/3/6 169/3/6
f 169/3/6 168/3/6 170/3/6
f 171/3/6 172/3/6 173/3/6
f 173/3/6 172/3/6 174/3/6
f 175/1/6 176/1/6 177/1/6
f 177/1/6 176/1/6 178/1/6
f 179/1/6 180/1/6 181/1/6
f 181/1/6 180/1/6 182/1/6
f 183/1/6 184/1/6 186/1/6
f 186/1/6 184/1/6 187/1/6
f 185/1/6 186/1/6 188/1/6
f 188/1/6 186/1/6 189/1/6
f 189/1/6 190/1/6 191/1/6
f 191/1/6 190/1/6 192/1/6
f 193/1/6 194/1/6 196/1/6
f 195/1/6 196/1/6 197/1/6
f 196/1/6 194/1/6 198/1/6
f 197/1/6 196/1/6 198/1/6
f 198/1/6 194/1/6 199/1/6
f 199/1/6 194/1/6 200/1/6
