# MagicaVoxel @ Ephtracy

# group
o 

# material
mtllib Player-0.mtl
usemtl palette

# normals
vn -1 0 0
vn 1 0 0
vn 0 0 1
vn 0 0 -1
vn 0 -1 0
vn 0 1 0

# texcoords
vt 0.908203 0.5
vt 0.947266 0.5
vt 0.958984 0.5
vt 0.974609 0.5
vt 0.990234 0.5

# verts
v -0.3 -0.8 0.5
v -0.3 -0.8 -0.2
v -0.3 -0.6 0.5
v -0.3 -0.6 0.4
v -0.3 -0.6 -0.2
v -0.3 -0.5 0.4
v -0.3 -0.5 -0.2
v -0.3 -0.5 -0.3
v -0.3 -0.3 -0.2
v -0.3 -0.3 -0.3
v -0.3 0 -0.2
v -0.3 0 -0.4
v -0.3 0 -0.5
v -0.3 0.1 0.4
v -0.3 0.1 -0.2
v -0.3 0.1 -0.4
v -0.3 0.1 -0.5
v -0.2 -0.8 -0.2
v -0.2 -0.8 -0.3
v -0.2 -0.6 -0.2
v -0.2 -0.6 -0.3
v -0.2 -0.5 -0.2
v -0.2 -0.5 -0.3
v -0.2 -0.3 0.5
v -0.2 -0.3 0.4
v -0.2 -0.1 0.5
v -0.2 -0.1 0.4
v -0.2 0 -0.4
v -0.2 0 -0.5
v -0.2 0.1 -0.4
v -0.2 0.1 -0.5
v 0.1 -0.8 -0.2
v 0.1 -0.8 -0.3
v 0.1 -0.6 -0.2
v 0.1 -0.6 -0.3
v 0.1 -0.5 -0.2
v 0.1 -0.5 -0.3
v 0.1 -0.3 0.5
v 0.1 -0.3 0.4
v 0.1 -0.1 0.5
v 0.1 -0.1 0.4
v 0.1 0 -0.2
v 0.1 0 -0.3
v 0.1 0 -0.4
v 0.1 0.1 -0.2
v 0.1 0.1 -0.3
v 0.1 0.1 -0.4
v 0.2 -0.8 0.5
v 0.2 -0.8 -0.2
v 0.2 -0.6 0.5
v 0.2 -0.6 0.4
v 0.2 -0.6 -0.2
v 0.2 -0.5 0.4
v 0.2 -0.5 -0.2
v 0.2 -0.5 -0.3
v 0.2 -0.3 -0.2
v 0.2 -0.3 -0.3
v 0.2 0.1 0.4
v 0.2 0.1 -0.2
v -0.3 -0.8 0.5
v -0.3 -0.6 0.5
v -0.2 -0.3 0.5
v -0.2 -0.1 0.5
v 0.1 -0.3 0.5
v 0.1 -0.1 0.5
v 0.2 -0.8 0.5
v 0.2 -0.6 0.5
v -0.3 -0.6 0.4
v -0.3 -0.5 0.4
v -0.3 0.1 0.4
v -0.2 -0.3 0.4
v -0.2 -0.1 0.4
v 0.1 -0.3 0.4
v 0.1 -0.1 0.4
v 0.2 -0.6 0.4
v 0.2 -0.5 0.4
v 0.2 0.1 0.4
v -0.3 -0.8 -0.2
v -0.3 -0.6 -0.2
v -0.3 -0.5 -0.2
v -0.3 -0.3 -0.2
v -0.3 0 -0.2
v -0.2 -0.8 -0.2
v -0.2 -0.6 -0.2
v -0.2 -0.5 -0.2
v 0.1 -0.8 -0.2
v 0.1 -0.6 -0.2
v 0.1 -0.5 -0.2
v 0.1 0 -0.2
v 0.1 0.1 -0.2
v 0.2 -0.8 -0.2
v 0.2 -0.6 -0.2
v 0.2 -0.5 -0.2
v 0.2 -0.3 -0.2
v 0.2 0.1 -0.2
v -0.3 -0.5 -0.3
v -0.3 -0.3 -0.3
v -0.2 -0.8 -0.3
v -0.2 -0.6 -0.3
v -0.2 -0.5 -0.3
v 0.1 -0.8 -0.3
v 0.1 -0.6 -0.3
v 0.1 -0.5 -0.3
v 0.2 -0.5 -0.3
v 0.2 -0.3 -0.3
v -0.2 0 -0.4
v -0.2 0.1 -0.4
v 0 0 -0.4
v 0 0.1 -0.4
v 0.1 0 -0.4
v 0.1 0.1 -0.4
v -0.3 0 -0.5
v -0.3 0.1 -0.5
v -0.2 0 -0.5
v -0.2 0.1 -0.5
v -0.3 -0.8 0.5
v 0.2 -0.8 0.5
v -0.3 -0.8 -0.2
v -0.2 -0.8 -0.2
v 0.1 -0.8 -0.2
v 0.2 -0.8 -0.2
v -0.2 -0.8 -0.3
v 0.1 -0.8 -0.3
v -0.3 -0.5 -0.2
v -0.2 -0.5 -0.2
v 0.1 -0.5 -0.2
v 0.2 -0.5 -0.2
v -0.3 -0.5 -0.3
v -0.2 -0.5 -0.3
v 0.1 -0.5 -0.3
v 0.2 -0.5 -0.3
v -0.2 -0.3 0.5
v 0.1 -0.3 0.5
v -0.2 -0.3 0.4
v 0.1 -0.3 0.4
v -0.3 0 -0.2
v 0.1 0 -0.2
v 0 0 -0.3
v 0.1 0 -0.3
v -0.3 0 -0.4
v -0.2 0 -0.4
v 0 0 -0.4
v 0.1 0 -0.4
v -0.3 0 -0.5
v -0.2 0 -0.5
v -0.3 -0.6 0.5
v 0.2 -0.6 0.5
v -0.3 -0.6 0.4
v 0.2 -0.6 0.4
v -0.3 -0.3 -0.2
v 0.2 -0.3 -0.2
v -0.3 -0.3 -0.3
v 0.2 -0.3 -0.3
v -0.2 -0.1 0.5
v 0.1 -0.1 0.5
v -0.2 -0.1 0.4
v 0.1 -0.1 0.4
v -0.3 0.1 0.4
v 0.2 0.1 0.4
v -0.3 0.1 -0.2
v 0.1 0.1 -0.2
v 0.2 0.1 -0.2
v 0 0.1 -0.3
v 0.1 0.1 -0.3
v -0.3 0.1 -0.4
v -0.2 0.1 -0.4
v 0 0.1 -0.4
v 0.1 0.1 -0.4
v -0.3 0.1 -0.5
v -0.2 0.1 -0.5

# faces
f 3/5/1 2/5/1 1/5/1
f 4/5/1 2/5/1 3/5/1
f 5/5/1 2/5/1 4/5/1
f 6/3/1 5/3/1 4/3/1
f 7/3/1 5/3/1 6/3/1
f 9/4/1 7/4/1 6/4/1
f 9/4/1 8/4/1 7/4/1
f 10/4/1 8/4/1 9/4/1
f 11/4/1 9/4/1 6/4/1
f 14/4/1 11/4/1 6/4/1
f 15/2/1 12/2/1 11/2/1
f 15/4/1 11/4/1 14/4/1
f 16/1/1 13/1/1 12/1/1
f 16/2/1 12/2/1 15/2/1
f 17/1/1 13/1/1 16/1/1
f 20/5/1 19/5/1 18/5/1
f 21/5/1 19/5/1 20/5/1
f 22/3/1 21/3/1 20/3/1
f 23/3/1 21/3/1 22/3/1
f 26/3/1 25/3/1 24/3/1
f 27/3/1 25/3/1 26/3/1
f 28/1/2 29/1/2 30/1/2
f 30/1/2 29/1/2 31/1/2
f 32/5/2 33/5/2 34/5/2
f 34/5/2 33/5/2 35/5/2
f 34/3/2 35/3/2 36/3/2
f 36/3/2 35/3/2 37/3/2
f 38/3/2 39/3/2 40/3/2
f 40/3/2 39/3/2 41/3/2
f 42/2/2 43/2/2 45/2/2
f 43/1/2 44/1/2 46/1/2
f 45/2/2 43/2/2 46/2/2
f 46/1/2 44/1/2 47/1/2
f 48/5/2 49/5/2 50/5/2
f 50/5/2 49/5/2 51/5/2
f 51/5/2 49/5/2 52/5/2
f 51/3/2 52/3/2 53/3/2
f 53/3/2 52/3/2 54/3/2
f 53/4/2 54/4/2 56/4/2
f 54/4/2 55/4/2 56/4/2
f 56/4/2 55/4/2 57/4/2
f 53/4/2 56/4/2 58/4/2
f 58/4/2 56/4/2 59/4/2
f 64/3/3 63/3/3 62/3/3
f 65/3/3 63/3/3 64/3/3
f 66/5/3 61/5/3 60/5/3
f 67/5/3 61/5/3 66/5/3
f 71/4/3 70/4/3 69/4/3
f 72/4/3 70/4/3 71/4/3
f 73/4/3 71/4/3 69/4/3
f 74/4/3 70/4/3 72/4/3
f 75/3/3 69/3/3 68/3/3
f 76/4/3 74/4/3 73/4/3
f 76/3/3 69/3/3 75/3/3
f 76/4/3 73/4/3 69/4/3
f 77/4/3 70/4/3 74/4/3
f 77/4/3 74/4/3 76/4/3
f 78/5/4 79/5/4 83/5/4
f 79/3/4 80/3/4 84/3/4
f 83/5/4 79/5/4 84/5/4
f 84/3/4 80/3/4 85/3/4
f 81/4/4 82/4/4 89/4/4
f 86/5/4 87/5/4 91/5/4
f 87/3/4 88/3/4 92/3/4
f 91/5/4 87/5/4 92/5/4
f 92/3/4 88/3/4 93/3/4
f 89/4/4 90/4/4 94/4/4
f 81/4/4 89/4/4 94/4/4
f 94/4/4 90/4/4 95/4/4
f 96/4/4 97/4/4 100/4/4
f 98/5/4 99/5/4 101/5/4
f 99/3/4 100/3/4 102/3/4
f 101/5/4 99/5/4 102/5/4
f 100/4/4 97/4/4 103/4/4
f 102/3/4 100/3/4 103/3/4
f 103/4/4 97/4/4 104/4/4
f 104/4/4 97/4/4 105/4/4
f 106/2/4 107/2/4 108/2/4
f 108/2/4 107/2/4 109/2/4
f 108/1/4 109/1/4 110/1/4
f 110/1/4 109/1/4 111/1/4
f 112/1/4 113/1/4 114/1/4
f 114/1/4 113/1/4 115/1/4
f 118/5/5 117/5/5 116/5/5
f 119/5/5 117/5/5 118/5/5
f 120/5/5 117/5/5 119/5/5
f 121/5/5 117/5/5 120/5/5
f 122/5/5 120/5/5 119/5/5
f 123/5/5 120/5/5 122/5/5
f 128/4/5 125/4/5 124/4/5
f 129/4/5 125/4/5 128/4/5
f 130/4/5 127/4/5 126/4/5
f 131/4/5 127/4/5 130/4/5
f 134/3/5 133/3/5 132/3/5
f 135/3/5 133/3/5 134/3/5
f 138/2/5 137/2/5 136/2/5
f 139/2/5 137/2/5 138/2/5
f 140/2/5 138/2/5 136/2/5
f 141/2/5 138/2/5 140/2/5
f 142/1/5 139/1/5 138/1/5
f 142/2/5 138/2/5 141/2/5
f 143/1/5 139/1/5 142/1/5
f 144/1/5 141/1/5 140/1/5
f 145/1/5 141/1/5 144/1/5
f 146/5/6 147/5/6 148/5/6
f 148/5/6 147/5/6 149/5/6
f 150/4/6 151/4/6 152/4/6
f 152/4/6 151/4/6 153/4/6
f 154/3/6 155/3/6 156/3/6
f 156/3/6 155/3/6 157/3/6
f 158/4/6 159/4/6 160/4/6
f 160/4/6 159/4/6 161/4/6
f 161/4/6 159/4/6 162/4/6
f 160/2/6 161/2/6 163/2/6
f 163/2/6 161/2/6 164/2/6
f 160/2/6 163/2/6 165/2/6
f 165/2/6 163/2/6 166/2/6
f 163/1/6 164/1/6 167/1/6
f 166/2/6 163/2/6 167/2/6
f 167/1/6 164/1/6 168/1/6
f 165/1/6 166/1/6 169/1/6
f 169/1/6 166/1/6 170/1/6
